<mxfile host="app.diagrams.net" modified="2024-06-08T15:25:42.977Z" agent="Mozilla/5.0 (Windows NT 10.0; Win64; x64) AppleWebKit/537.36 (KHTML, like Gecko) Chrome/125.0.0.0 Safari/537.36" etag="gO0fzkROsYWCDgxuZMsm" version="24.5.2" type="github">
  <diagram name="Page-1" id="9U33n8r40gZw74kockKe">
    <mxGraphModel dx="1050" dy="557" grid="1" gridSize="10" guides="1" tooltips="1" connect="1" arrows="1" fold="1" page="1" pageScale="1" pageWidth="850" pageHeight="1100" math="0" shadow="0">
      <root>
        <mxCell id="0" />
        <mxCell id="1" parent="0" />
        <mxCell id="zy9Kq4kMWZRvwxZqhlfx-39" value="" style="edgeStyle=orthogonalEdgeStyle;rounded=0;orthogonalLoop=1;jettySize=auto;html=1;" edge="1" parent="1" source="zy9Kq4kMWZRvwxZqhlfx-2" target="zy9Kq4kMWZRvwxZqhlfx-4">
          <mxGeometry relative="1" as="geometry" />
        </mxCell>
        <mxCell id="zy9Kq4kMWZRvwxZqhlfx-2" value="Start" style="ellipse;whiteSpace=wrap;html=1;" vertex="1" parent="1">
          <mxGeometry x="340" y="70" width="120" height="50" as="geometry" />
        </mxCell>
        <mxCell id="zy9Kq4kMWZRvwxZqhlfx-40" value="" style="edgeStyle=orthogonalEdgeStyle;rounded=0;orthogonalLoop=1;jettySize=auto;html=1;" edge="1" parent="1" source="zy9Kq4kMWZRvwxZqhlfx-4" target="zy9Kq4kMWZRvwxZqhlfx-7">
          <mxGeometry relative="1" as="geometry" />
        </mxCell>
        <mxCell id="zy9Kq4kMWZRvwxZqhlfx-4" value="&lt;font style=&quot;font-size: 11px;&quot;&gt;Building the back legs.&lt;/font&gt;" style="rounded=1;whiteSpace=wrap;html=1;" vertex="1" parent="1">
          <mxGeometry x="330" y="160" width="140" height="80" as="geometry" />
        </mxCell>
        <mxCell id="zy9Kq4kMWZRvwxZqhlfx-5" value="" style="edgeStyle=orthogonalEdgeStyle;rounded=0;orthogonalLoop=1;jettySize=auto;html=1;" edge="1" parent="1" source="zy9Kq4kMWZRvwxZqhlfx-7" target="zy9Kq4kMWZRvwxZqhlfx-9">
          <mxGeometry relative="1" as="geometry" />
        </mxCell>
        <mxCell id="zy9Kq4kMWZRvwxZqhlfx-6" value="" style="edgeStyle=orthogonalEdgeStyle;rounded=0;orthogonalLoop=1;jettySize=auto;html=1;" edge="1" parent="1" source="zy9Kq4kMWZRvwxZqhlfx-7" target="zy9Kq4kMWZRvwxZqhlfx-12">
          <mxGeometry relative="1" as="geometry" />
        </mxCell>
        <mxCell id="zy9Kq4kMWZRvwxZqhlfx-7" value="It is enough for installing approns ?" style="rhombus;whiteSpace=wrap;html=1;" vertex="1" parent="1">
          <mxGeometry x="355" y="280" width="90" height="80" as="geometry" />
        </mxCell>
        <mxCell id="zy9Kq4kMWZRvwxZqhlfx-8" value="" style="edgeStyle=orthogonalEdgeStyle;rounded=0;orthogonalLoop=1;jettySize=auto;html=1;" edge="1" parent="1" source="zy9Kq4kMWZRvwxZqhlfx-9" target="zy9Kq4kMWZRvwxZqhlfx-4">
          <mxGeometry relative="1" as="geometry" />
        </mxCell>
        <mxCell id="zy9Kq4kMWZRvwxZqhlfx-9" value="Make sure what is mistake for do it again." style="whiteSpace=wrap;html=1;" vertex="1" parent="1">
          <mxGeometry x="600" y="160" width="120" height="80" as="geometry" />
        </mxCell>
        <mxCell id="zy9Kq4kMWZRvwxZqhlfx-10" value="No" style="text;html=1;align=center;verticalAlign=middle;resizable=0;points=[];autosize=1;strokeColor=none;fillColor=none;" vertex="1" parent="1">
          <mxGeometry x="540" y="330" width="40" height="30" as="geometry" />
        </mxCell>
        <mxCell id="zy9Kq4kMWZRvwxZqhlfx-11" value="" style="edgeStyle=orthogonalEdgeStyle;rounded=0;orthogonalLoop=1;jettySize=auto;html=1;" edge="1" parent="1" source="zy9Kq4kMWZRvwxZqhlfx-12" target="zy9Kq4kMWZRvwxZqhlfx-15">
          <mxGeometry relative="1" as="geometry" />
        </mxCell>
        <mxCell id="zy9Kq4kMWZRvwxZqhlfx-12" value="Installing apporn first and installing apporn at the front and the back apporns." style="rounded=1;whiteSpace=wrap;html=1;" vertex="1" parent="1">
          <mxGeometry x="335" y="440" width="130" height="80" as="geometry" />
        </mxCell>
        <mxCell id="zy9Kq4kMWZRvwxZqhlfx-13" value="" style="edgeStyle=orthogonalEdgeStyle;rounded=0;orthogonalLoop=1;jettySize=auto;html=1;" edge="1" parent="1" source="zy9Kq4kMWZRvwxZqhlfx-15" target="zy9Kq4kMWZRvwxZqhlfx-17">
          <mxGeometry relative="1" as="geometry" />
        </mxCell>
        <mxCell id="zy9Kq4kMWZRvwxZqhlfx-14" value="" style="edgeStyle=orthogonalEdgeStyle;rounded=0;orthogonalLoop=1;jettySize=auto;html=1;" edge="1" parent="1" source="zy9Kq4kMWZRvwxZqhlfx-15" target="zy9Kq4kMWZRvwxZqhlfx-21">
          <mxGeometry relative="1" as="geometry">
            <Array as="points">
              <mxPoint x="330" y="790" />
              <mxPoint x="330" y="790" />
            </Array>
          </mxGeometry>
        </mxCell>
        <mxCell id="zy9Kq4kMWZRvwxZqhlfx-15" value="It is strong enough for build back suppot?" style="rhombus;whiteSpace=wrap;html=1;" vertex="1" parent="1">
          <mxGeometry x="345" y="600" width="110" height="80" as="geometry" />
        </mxCell>
        <mxCell id="zy9Kq4kMWZRvwxZqhlfx-16" value="" style="edgeStyle=orthogonalEdgeStyle;rounded=0;orthogonalLoop=1;jettySize=auto;html=1;entryX=1;entryY=0.5;entryDx=0;entryDy=0;" edge="1" parent="1" source="zy9Kq4kMWZRvwxZqhlfx-17" target="zy9Kq4kMWZRvwxZqhlfx-12">
          <mxGeometry relative="1" as="geometry">
            <mxPoint x="425" y="520" as="targetPoint" />
          </mxGeometry>
        </mxCell>
        <mxCell id="zy9Kq4kMWZRvwxZqhlfx-17" value="Make sure if it not strong will make new version to strongest more than before version." style="whiteSpace=wrap;html=1;" vertex="1" parent="1">
          <mxGeometry x="640" y="440" width="120" height="80" as="geometry" />
        </mxCell>
        <mxCell id="zy9Kq4kMWZRvwxZqhlfx-18" value="No" style="text;html=1;align=center;verticalAlign=middle;resizable=0;points=[];autosize=1;strokeColor=none;fillColor=none;" vertex="1" parent="1">
          <mxGeometry x="540" y="650" width="40" height="30" as="geometry" />
        </mxCell>
        <mxCell id="zy9Kq4kMWZRvwxZqhlfx-19" value="Yes" style="text;html=1;align=center;verticalAlign=middle;resizable=0;points=[];autosize=1;strokeColor=none;fillColor=none;" vertex="1" parent="1">
          <mxGeometry x="405" y="380" width="40" height="30" as="geometry" />
        </mxCell>
        <mxCell id="zy9Kq4kMWZRvwxZqhlfx-41" value="" style="edgeStyle=orthogonalEdgeStyle;rounded=0;orthogonalLoop=1;jettySize=auto;html=1;" edge="1" parent="1" source="zy9Kq4kMWZRvwxZqhlfx-21" target="zy9Kq4kMWZRvwxZqhlfx-25">
          <mxGeometry relative="1" as="geometry" />
        </mxCell>
        <mxCell id="zy9Kq4kMWZRvwxZqhlfx-21" value="Build Back Support" style="rounded=1;whiteSpace=wrap;html=1;" vertex="1" parent="1">
          <mxGeometry x="340" y="760" width="130" height="80" as="geometry" />
        </mxCell>
        <mxCell id="zy9Kq4kMWZRvwxZqhlfx-22" value="Yes" style="text;html=1;align=center;verticalAlign=middle;resizable=0;points=[];autosize=1;strokeColor=none;fillColor=none;" vertex="1" parent="1">
          <mxGeometry x="405" y="700" width="40" height="30" as="geometry" />
        </mxCell>
        <mxCell id="zy9Kq4kMWZRvwxZqhlfx-23" value="" style="edgeStyle=orthogonalEdgeStyle;rounded=0;orthogonalLoop=1;jettySize=auto;html=1;" edge="1" parent="1" source="zy9Kq4kMWZRvwxZqhlfx-25" target="zy9Kq4kMWZRvwxZqhlfx-27">
          <mxGeometry relative="1" as="geometry" />
        </mxCell>
        <mxCell id="zy9Kq4kMWZRvwxZqhlfx-24" value="" style="edgeStyle=orthogonalEdgeStyle;rounded=0;orthogonalLoop=1;jettySize=auto;html=1;" edge="1" parent="1" source="zy9Kq4kMWZRvwxZqhlfx-25" target="zy9Kq4kMWZRvwxZqhlfx-30">
          <mxGeometry relative="1" as="geometry" />
        </mxCell>
        <mxCell id="zy9Kq4kMWZRvwxZqhlfx-25" value="It is good and strong enough for installing seat support" style="rhombus;whiteSpace=wrap;html=1;" vertex="1" parent="1">
          <mxGeometry x="345" y="880" width="120" height="80" as="geometry" />
        </mxCell>
        <mxCell id="zy9Kq4kMWZRvwxZqhlfx-26" value="" style="edgeStyle=orthogonalEdgeStyle;rounded=0;orthogonalLoop=1;jettySize=auto;html=1;entryX=1;entryY=0.5;entryDx=0;entryDy=0;" edge="1" parent="1" source="zy9Kq4kMWZRvwxZqhlfx-27" target="zy9Kq4kMWZRvwxZqhlfx-21">
          <mxGeometry relative="1" as="geometry">
            <mxPoint x="455" y="840" as="targetPoint" />
          </mxGeometry>
        </mxCell>
        <mxCell id="zy9Kq4kMWZRvwxZqhlfx-27" value="Make sure after build back support it strong enough if don&#39;t strong enough you must improve to be better." style="whiteSpace=wrap;html=1;" vertex="1" parent="1">
          <mxGeometry x="640" y="760" width="120" height="80" as="geometry" />
        </mxCell>
        <mxCell id="zy9Kq4kMWZRvwxZqhlfx-28" value="No" style="text;html=1;align=center;verticalAlign=middle;resizable=0;points=[];autosize=1;strokeColor=none;fillColor=none;" vertex="1" parent="1">
          <mxGeometry x="560" y="930" width="40" height="30" as="geometry" />
        </mxCell>
        <mxCell id="zy9Kq4kMWZRvwxZqhlfx-29" value="" style="edgeStyle=orthogonalEdgeStyle;rounded=0;orthogonalLoop=1;jettySize=auto;html=1;" edge="1" parent="1" source="zy9Kq4kMWZRvwxZqhlfx-30" target="zy9Kq4kMWZRvwxZqhlfx-34">
          <mxGeometry relative="1" as="geometry" />
        </mxCell>
        <mxCell id="zy9Kq4kMWZRvwxZqhlfx-30" value="Attrach the chair braces" style="rounded=1;whiteSpace=wrap;html=1;" vertex="1" parent="1">
          <mxGeometry x="345" y="1010" width="120" height="80" as="geometry" />
        </mxCell>
        <mxCell id="zy9Kq4kMWZRvwxZqhlfx-31" value="Finish/Complete the product" style="ellipse;whiteSpace=wrap;html=1;" vertex="1" parent="1">
          <mxGeometry x="345" y="1340" width="120" height="50" as="geometry" />
        </mxCell>
        <mxCell id="zy9Kq4kMWZRvwxZqhlfx-32" value="" style="edgeStyle=orthogonalEdgeStyle;rounded=0;orthogonalLoop=1;jettySize=auto;html=1;" edge="1" parent="1" source="zy9Kq4kMWZRvwxZqhlfx-34" target="zy9Kq4kMWZRvwxZqhlfx-31">
          <mxGeometry relative="1" as="geometry" />
        </mxCell>
        <mxCell id="zy9Kq4kMWZRvwxZqhlfx-33" value="" style="edgeStyle=orthogonalEdgeStyle;rounded=0;orthogonalLoop=1;jettySize=auto;html=1;" edge="1" parent="1" source="zy9Kq4kMWZRvwxZqhlfx-34" target="zy9Kq4kMWZRvwxZqhlfx-36">
          <mxGeometry relative="1" as="geometry" />
        </mxCell>
        <mxCell id="zy9Kq4kMWZRvwxZqhlfx-34" value="Product(Chair) it is strong,good for people?" style="rhombus;whiteSpace=wrap;html=1;" vertex="1" parent="1">
          <mxGeometry x="345" y="1140" width="120" height="80" as="geometry" />
        </mxCell>
        <mxCell id="zy9Kq4kMWZRvwxZqhlfx-35" value="" style="edgeStyle=orthogonalEdgeStyle;rounded=0;orthogonalLoop=1;jettySize=auto;html=1;entryX=1;entryY=0.5;entryDx=0;entryDy=0;" edge="1" parent="1" source="zy9Kq4kMWZRvwxZqhlfx-36" target="zy9Kq4kMWZRvwxZqhlfx-30">
          <mxGeometry relative="1" as="geometry">
            <mxPoint x="465" y="1040" as="targetPoint" />
          </mxGeometry>
        </mxCell>
        <mxCell id="zy9Kq4kMWZRvwxZqhlfx-36" value="Check again and after that go to last process again" style="whiteSpace=wrap;html=1;" vertex="1" parent="1">
          <mxGeometry x="640" y="1000" width="130" height="100" as="geometry" />
        </mxCell>
        <mxCell id="zy9Kq4kMWZRvwxZqhlfx-37" value="No" style="text;html=1;align=center;verticalAlign=middle;resizable=0;points=[];autosize=1;strokeColor=none;fillColor=none;" vertex="1" parent="1">
          <mxGeometry x="560" y="1190" width="40" height="30" as="geometry" />
        </mxCell>
        <mxCell id="zy9Kq4kMWZRvwxZqhlfx-38" value="Yes" style="text;html=1;align=center;verticalAlign=middle;resizable=0;points=[];autosize=1;strokeColor=none;fillColor=none;" vertex="1" parent="1">
          <mxGeometry x="415" y="1260" width="40" height="30" as="geometry" />
        </mxCell>
      </root>
    </mxGraphModel>
  </diagram>
</mxfile>
